<?xml version="1.0" encoding="utf-8"?>
<!-- Generator: Adobe Illustrator 28.0.0, SVG Export Plug-In . SVG Version: 6.00 Build 0)  -->
<svg version="1.1" id="logo" xmlns="http://www.w3.org/2000/svg" xmlns:xlink="http://www.w3.org/1999/xlink" x="0px" y="0px"
	 viewBox="0 0 324 324" style="enable-background:new 0 0 324 324;" xml:space="preserve">
<style type="text/css">
	.st0{fill:#A61E2F;}
</style>
<g>
	<path class="st0" d="M77.2,43.1C77.2,43.1,77.2,43.1,77.2,43.1c-0.3-3.2-1.4-6.2-2.5-9.2c-0.5-1.5-1.1-3.1-1.5-4.6
		c-2.4-8.4-1.4-17.8,2.7-25.6L76,3.6c0-0.1,0.1-0.2,0.1-0.2c0.4-0.6,0.3-1.5-0.3-2c-0.6-0.5-1.4-0.5-2,0.1
		C65.7,9.4,61.9,19.3,63.7,28c0.7,3.3,2.1,6.4,3.5,9.4c1.2,2.5,2.3,4.8,2.9,7.3c0.8,2.8,0.7,5.5,0.5,8.3c-0.1,1.1-0.1,2.3-0.1,3.5
		c0,0.6,0.4,1.1,0.9,1.4C71.6,58,71.8,58,72,58c0.4,0,0.7-0.1,1-0.4C76.7,54.4,77.7,48,77.2,43.1z"/>
	<path class="st0" d="M55.2,71.4c-0.3-2.5-1.1-4.8-1.9-7c-0.4-1.2-0.8-2.3-1.2-3.5c-1.8-6.3-1-13.2,2.1-19.1c0-0.1,0.1-0.1,0.1-0.2
		c0.4-0.6,0.3-1.5-0.3-2c-0.6-0.5-1.4-0.4-2,0.1c-6.2,6-9.1,13.6-7.8,20.4c0.5,2.6,1.6,4.9,2.7,7.1c0.9,1.9,1.7,3.6,2.2,5.5
		c0.6,2,0.5,4.1,0.4,6.2c0,0.9-0.1,1.8-0.1,2.6c0,0.6,0.3,1.1,0.9,1.4c0.2,0.1,0.4,0.1,0.6,0.1c0.4,0,0.7-0.1,1-0.4
		C54.7,80.2,55.6,75.2,55.2,71.4z"/>
	<path class="st0" d="M107.9,57.2C107.9,57.2,107.9,57.2,107.9,57.2c-0.4-2.7-1.6-5.2-2.7-7.7c-0.6-1.3-1.2-2.5-1.7-3.8
		c-2.5-6.8-1.4-14.2,3-20.5c0.1-0.1,0.1-0.2,0.2-0.3c0.4-0.6,0.4-1.4-0.1-2c-0.5-0.5-1.3-0.6-1.9-0.2c-9,6.5-13.2,14.8-11.2,22.2
		c0.8,2.8,2.3,5.3,3.9,7.8c1.3,2,2.4,3.9,3.2,5.9c0.8,2.2,0.7,4.4,0.5,6.7c-0.1,0.9-0.1,1.9-0.1,2.9c0,0.6,0.3,1.1,0.8,1.3
		c0.2,0.1,0.5,0.2,0.7,0.2c0.3,0,0.6-0.1,0.8-0.3C107.3,66.8,108.5,61.4,107.9,57.2z"/>
	<path class="st0" d="M283.4,203.9c-4.4-27.3-24.8-50.5-53.4-60.4c-28.3-9.9-57.5-4.5-78,14.2c-2.2,1.6-4.6,4.2-7.2,7
		c-5,5.3-10.6,11.3-15.4,11.1c-4.7-3.1-3.6-8.3-1.4-15.9c1-3.2,1.9-6.5,2-9.5c0,0,0-0.1,0-0.1c-0.5-7-2.5-12.5-4.5-17.8
		c-3.7-9.8-6.8-18.3,1.6-32.8c0.2-0.4,0.3-0.9,0.1-1.3c-0.2-0.4-0.5-0.8-0.9-0.9c-1.6-0.5-3.2-0.7-4.9-0.4c-6,0.7-11.6,5.7-13.4,12
		c-2.3,8.3,0.5,16.3,3.2,24c2.2,6.2,4.3,12,3.9,18c-0.2,3.4-1.2,6.9-2.1,10.4c-1.7,6.3-3.5,12.9-0.8,18.6c-1.4-0.2-2.5-0.9-3.3-1.5
		c-2.6-2.1-4.4-5.8-4.5-9.3c-0.1-3.4,0.8-6.7,1.6-10.1c0.7-2.8,1.4-5.7,1.7-8.6c0.5-6.5-1.5-13.1-3.4-19.6
		c-2.8-9.5-5.5-18.4-0.7-26.7c0.4-0.7,0.2-1.6-0.6-2c-2.6-1.5-5.7-1.7-8.8-0.6c-3.8,1.4-7,4.5-8.4,8.2c-2.8,7.7,0.1,15.1,2.9,22.2
		c1.9,4.8,3.7,9.4,3.8,14c0.1,4-1.1,8.2-2.4,12.7c-2.2,7.7-4.5,15.7,0.2,22.9c-1.1,0.5-2.3,0.4-3,0.3c-2.2-0.3-4.2-1.7-5.2-3.5
		c-2.7-5.2-0.4-10.5,2.1-16.2c1.2-2.8,2.5-5.7,3-8.5c1.6-7.9-1.3-15.9-4.1-23.5c-3.1-8.6-6.1-16.7-2.8-24.2c0.3-0.7,0-1.6-0.7-1.9
		c-2.5-1.3-5.4-1.3-8.3-0.1c-3.5,1.5-6.4,4.6-7.5,8.1c-2.1,7.1,0.6,13.7,3.3,20c2,4.7,3.8,9.1,3.9,13.6c0,4.7-1.9,9.6-3.7,14.2
		c-2.4,6-4.9,12.1-3.4,18.4c-1.1,0.2-2.1-0.1-2.9-0.4c-1.9-0.8-3.5-2.5-4.1-4.3c-1.6-4.8,0.5-9.3,2.8-14.1c1.4-3.1,2.9-6.2,3.4-9.5
		c0.9-6-1.3-12.1-3.5-17.9c-2.9-7.8-5.6-15.1-1.1-21.8c0.4-0.5,0.3-1.3-0.1-1.8c-1.4-1.7-3.6-2.7-6.1-2.8c-2.9-0.1-6,1.1-7.9,3.1
		c-6,6.7-3,15.5-0.6,22.6c0.4,1.2,0.8,2.4,1.1,3.5c3.3,11.5,1.3,24.2-5.4,34.1c-10.8-3.6-19.8-12.2-23.7-22.7
		c-0.3-0.7-1-1.1-1.7-0.9c-0.7,0.2-1.2,0.8-1.2,1.6c2.8,44,17.1,87.1,39.2,118.3c21.1,29.7,48.5,48.2,80.4,54.4
		c4.6,1,9.6,1.9,14.9,2.5c5.9,0.7,11.7,1,17.5,1c20.4,0,39.6-4.4,56.2-12.9c0,0,0,0,0,0c18-8.6,34-21.3,45.3-36.8
		C282.4,251.9,288.1,227.9,283.4,203.9z M272.6,239.1c-7.3,33.3-33.4,59.6-72.5,73.8c-23,7-49.3,7.2-75,0.6
		c-54.5-17.7-89.5-76.8-93-133c33.4,12.3,72.1,11.3,104.8-2.7c-9.1,18.6-7.6,42,4,60.7c11.5,18.4,30.7,28.5,51.5,26.9
		c30-3.5,46.7-29.9,45.6-53.4c-1-21.3-15.9-35.4-38-35.8c-0.2,0-0.3,0-0.5,0c-13.4,0-24,10.8-27.6,21.6c-3.7,11.1-0.3,21.6,9,28.3
		c0,0,0.1,0,0.1,0.1c5.3,3.2,12.4,3.4,18.6,0.5c5.4-2.5,9-6.8,9.9-11.8c0.1-0.7-0.2-1.3-0.8-1.6s-1.3-0.1-1.8,0.4
		c-6.7,7.9-14.4,6.4-19,2.7c-5.6-4.5-8.1-13.3-2-21.2c4.5-5.5,11.1-7.9,18.7-6.7c9,1.4,17.1,7.6,20.4,15.6c6.1,13.8,3.2,28.3-7.7,39
		c-10.3,10.1-28.8,16.6-46.8,8.2c-16.9-7.3-27.2-22.6-28.3-41.9c-1.1-21.5,9.6-41.8,27.3-51.9c29.7-13.6,57.5-11.8,78.4,5
		C269.4,179.5,279.1,209.7,272.6,239.1z"/>
	<path class="st0" d="M315.2,45.1c-0.9-4.3-5-8.2-11.1-7.1L5.9,100.2c0,0,0,0-0.1,0c-4,1-5.2,4.3-4.6,7c0.5,2.6,2.7,4.9,5.9,4.9
		c0.4,0,0.8,0,1.2-0.1c0,0,0,0,0,0c0.5-0.1,36.2-6.8,81.5-15.2l142.4-26.6l74.4-13.9c0.7-0.1,1.2-0.2,1.6-0.3l0,0
		C314.3,54.3,316.1,49.2,315.2,45.1z"/>
	<path class="st0" d="M322.8,80.1c-0.8-5-5.6-8.4-10.7-7.6l-181.4,28.2c0,0,0,0-0.1,0c-4,0.8-5.4,4-5,6.7c0.4,2.7,2.6,5.2,6,5.2
		c0.2,0,0.5,0,0.7,0c0,0,0.1,0,0.1,0c0.8-0.1,31.6-3.8,67.2-8.1c26-3.1,54.8-6.6,77.2-9.3c11.2-1.3,20.7-2.5,27.4-3.3l7.9-1
		c1.5-0.2,2.3-0.3,2.9-0.4l0,0c2.5-0.4,4.7-1.7,6.2-3.8C322.7,84.9,323.2,82.5,322.8,80.1z"/>
	<path class="st0" d="M40.8,119c-0.5-3.2-3.2-6.1-7.4-5.6l-22.8,3.8c0,0,0,0,0,0c-3.8,0.7-5.4,3.9-5.1,6.7c0.4,2.7,2.5,5.2,6.1,5.2
		c0.2,0,0.5,0,0.7,0c0.2,0,5-0.6,10.2-1.2c11.2-1.3,12.9-1.5,13-1.5C39.6,125.8,41.3,122.2,40.8,119z"/>
</g>
</svg>
